<?xml version="1.0" encoding="UTF-8"?>
<svg width="200mm" height="200mm" version="1.1" viewBox="0 0 708.66142 708.66141" xmlns="http://www.w3.org/2000/svg">
 <g transform="translate(0 -343.7)">
  <rect y="343.7" width="708.66" height="708.66" color="#000000" color-rendering="auto" fill="#7a9648" fill-rule="evenodd" image-rendering="auto" shape-rendering="auto" solid-color="#000000" style="isolation:auto;mix-blend-mode:normal"/>
  <path d="m110.27 377.82c-2.673 0-4.7606 0.90021-6.2628 2.7006-1.5022 1.7894-2.2533 4.3409-2.2533 7.6545v4.0592c0 3.3247 0.72348 5.8872 2.1704 7.6876 1.458 1.7894 3.5511 2.684 6.2793 2.684 2.5957 0 4.606-0.70692 6.0308-2.1207 1.4249-1.4138 2.198-3.4959 2.3195-6.2462h-4.871c-0.0663 1.6347-0.34241 2.7669-0.82841 3.3965-0.486 0.61855-1.3696 0.92782-2.6509 0.92782-1.3034 0-2.2257-0.44734-2.7669-1.342-0.53019-0.89469-0.79528-2.5405-0.79528-4.9373v-4.5562c0.0332-2.0876 0.32033-3.5842 0.86155-4.49 0.54123-0.91677 1.4635-1.3752 2.7669-1.3752 1.2813 0 2.1594 0.32583 2.6343 0.97752 0.486 0.64063 0.7511 1.8114 0.79527 3.5124h4.8876c-0.18777-2.7503-0.96648-4.86-2.3361-6.329-1.3586-1.469-3.3523-2.2036-5.9811-2.2036zm56.266 0c-2.2201 0-4.0537 0.61854-5.5006 1.8556-1.4359 1.226-2.1539 2.8552-2.1539 4.8876 0 1.6789 0.53018 3.1369 1.5905 4.374 1.0604 1.226 2.8 2.2974 5.219 3.2142 1.3255 0.54122 2.2367 1.0659 2.7338 1.574 0.50809 0.49704 0.76213 1.2371 0.76213 2.2201 0 1.8004-0.85049 2.7006-2.5515 2.7006-1.226 0-2.1097-0.3148-2.6509-0.94438-0.54123-0.6296-0.81184-1.6403-0.81184-3.032h-4.8876c0 1.6237 0.35898 3.032 1.0769 4.2249 0.72899 1.1929 1.7341 2.1097 3.0154 2.7503 1.2813 0.64064 2.7006 0.96096 4.258 0.96096 2.2974 0 4.1144-0.59093 5.4509-1.7728 1.3365-1.1819 2.0047-2.8221 2.0047-4.9208 0-1.9109-0.5357-3.4848-1.6071-4.7219-1.0604-1.2371-2.7669-2.2809-5.1196-3.1314-1.3475-0.57437-2.2864-1.1266-2.8166-1.6568-0.53018-0.54122-0.79527-1.1432-0.79527-1.8059 0-0.85051 0.23748-1.5243 0.71243-2.0213 0.47496-0.50809 1.1377-0.76214 1.9882-0.76214 0.90573 0 1.5961 0.29823 2.071 0.89468 0.486 0.58541 0.729 1.4414 0.729 2.5681h4.8545c0-1.447-0.31479-2.7393-0.94438-3.877-0.61855-1.1377-1.5077-2.0158-2.6675-2.6343-1.1598-0.62959-2.4797-0.94439-3.9598-0.94439zm18.358 0c-2.2201 0-4.0537 0.61854-5.5006 1.8556-1.4359 1.226-2.1539 2.8552-2.1539 4.8876 0 1.6789 0.53018 3.1369 1.5905 4.374 1.0604 1.226 2.8 2.2974 5.219 3.2142 1.3254 0.54122 2.2367 1.0659 2.7338 1.574 0.50809 0.49704 0.76213 1.2371 0.76213 2.2201 0 1.8004-0.8505 2.7006-2.5515 2.7006-1.226 0-2.1097-0.3148-2.6509-0.94438-0.54122-0.6296-0.81184-1.6403-0.81184-3.032h-4.8876c0 1.6237 0.35898 3.032 1.0769 4.2249 0.72901 1.1929 1.7341 2.1097 3.0154 2.7503 1.2813 0.64064 2.7006 0.96096 4.258 0.96096 2.2974 0 4.1144-0.59093 5.4509-1.7728 1.3365-1.1819 2.0048-2.8221 2.0048-4.9208 0-1.9109-0.5357-3.4848-1.6071-4.7219-1.0604-1.2371-2.7669-2.2809-5.1196-3.1314-1.3476-0.57437-2.2864-1.1266-2.8166-1.6568-0.53018-0.54122-0.79527-1.1432-0.79527-1.8059 0-0.85051 0.23748-1.5243 0.71243-2.0213 0.47495-0.50809 1.1377-0.76214 1.9882-0.76214 0.90572 0 1.5961 0.29823 2.071 0.89468 0.48601 0.58541 0.72901 1.4414 0.72901 2.5681h4.8545c0-1.447-0.31479-2.7393-0.94439-3.877-0.61854-1.1377-1.5077-2.0158-2.6675-2.6343-1.1598-0.62959-2.4797-0.94439-3.9598-0.94439zm100.9 0c-1.4028 0-2.662 0.34242-3.7776 1.0272-1.1046 0.67378-1.9661 1.6237-2.5846 2.8497-0.6075 1.226-0.91125 2.5791-0.91125 4.0592h4.7054c0-1.2813 0.22092-2.2754 0.66273-2.9823 0.45287-0.70691 1.0604-1.0604 1.8225-1.0604 0.69586 0 1.226 0.30375 1.5906 0.91125 0.37554 0.60751 0.56331 1.447 0.56331 2.5184 0 0.79527-0.19882 1.6292-0.59645 2.5018-0.3866 0.86154-0.99409 1.8667-1.8225 3.0154l-6.5279 8.3007v3.3136h14.216v-3.8935h-8.2012l3.0982-4.4237c1.7231-2.0434 2.9105-3.761 3.5622-5.1527 0.66274-1.4028 0.9941-2.7834 0.9941-4.142 0-2.187-0.59645-3.8714-1.7894-5.0533-1.1819-1.1929-2.8497-1.7894-5.0036-1.7894zm35.754 0c-2.673 0-4.7606 0.90021-6.2628 2.7006-1.5022 1.7894-2.2533 4.3409-2.2533 7.6545v4.0592c0 3.3247 0.72348 5.8872 2.1704 7.6876 1.458 1.7894 3.5511 2.684 6.2794 2.684 2.5957 0 4.606-0.70692 6.0308-2.1207 1.4249-1.4138 2.198-3.4959 2.3196-6.2462h-4.871c-0.0662 1.6347-0.34241 2.7669-0.8284 3.3965-0.48601 0.61855-1.3696 0.92782-2.6509 0.92782-1.3034 0-2.2257-0.44734-2.7669-1.342-0.53018-0.89469-0.79527-2.5405-0.79527-4.9373v-4.5562c0.0332-2.0876 0.32031-3.5842 0.86154-4.49 0.54123-0.91677 1.4635-1.3752 2.7669-1.3752 1.2813 0 2.1594 0.32583 2.6343 0.97752 0.48602 0.64063 0.75111 1.8114 0.79527 3.5124h4.8876c-0.18776-2.7503-0.96647-4.86-2.3361-6.329-1.3586-1.469-3.3523-2.2036-5.9811-2.2036zm19.567 0c-2.7282 0-4.86 0.93334-6.3953 2.8-1.5353 1.8556-2.303 4.4403-2.303 7.7539v4.1255c0.0221 3.1922 0.80632 5.6774 2.3527 7.4557 1.5464 1.7673 3.6726 2.6509 6.3788 2.6509 2.7172 0 4.8379-0.89469 6.3622-2.684 1.5353-1.7894 2.303-4.3022 2.303-7.5385v-4.1255c-0.022-3.3026-0.80632-5.8651-2.3527-7.6876-1.5464-1.8335-3.6616-2.7503-6.3456-2.7503zm-86.701 0.29823-8.7977 3.5953v3.9101l4.5894-1.7728v18.424h4.7054v-24.156h-0.49704zm-132.86 0.0332v24.123h4.871v-10.322h7.1906v10.322h4.8545v-24.123h-4.8545v9.7587h-7.1906v-9.7587h-4.871zm20.81 0v24.123h13.851v-4.0426h-8.98v-6.3953h7.5882v-3.9266h-7.5882v-5.6995h8.9468v-4.0592h-13.818zm53.35 0v24.123h4.871v-15.823l7.1243 15.823h4.871v-24.123h-4.8545v15.839l-7.1409-15.839h-4.871zm27.106 0-7.5385 24.123h5.1527l1.2923-4.9373h6.6438l1.2923 4.9373h5.2024l-7.5882-24.123h-4.4568zm38.488 0v3.8935h9.6758l-7.6545 20.23h4.9539l7.6214-21.423v-2.7006h-14.597zm43.177 0v24.123h4.871v-24.123h-4.871zm48.826 0v24.123h4.871v-15.823l7.1243 15.823h4.871v-24.123h-4.8545v15.839l-7.1409-15.839h-4.871zm-12.194 3.7444c1.3034 0 2.2643 0.53019 2.8829 1.5906 0.61854 1.0604 0.92782 2.6785 0.92782 4.8545v4.1918c-0.011 2.0544-0.32584 3.5732-0.94438 4.5562-0.61855 0.97199-1.5629 1.458-2.8332 1.458-1.3144 0-2.2864-0.49705-2.916-1.4911-0.62958-1.0051-0.94438-2.5626-0.94438-4.6722v-4.2912c0.022-2.0876 0.34241-3.6395 0.96095-4.6556 0.61855-1.0272 1.574-1.5408 2.8663-1.5408zm-116.08 2.7835 2.2533 8.5989h-4.5066l2.2533-8.5989z" fill="#7a9648"/>
  <path d="m168.67 616.95c-1.2178 0-2.1622 0.38604-2.8332 1.1565-0.66273 0.7621-1.0073 1.8258-1.0322 3.1927v1.5541h-1.7513v1.7761h1.7513v11.669h2.2002v-11.669h2.298v-1.7761h-2.298v-1.2675c1e-5 -1.7811 0.62462-2.6724 1.8755-2.6724 0.35621 0 0.69255 0.0381 1.0074 0.11267l0.111-1.8639c-0.44733-0.14081-0.88971-0.21207-1.3288-0.21207zm-66.766 0.26178v19.087h2.2003v-9.7669c0.26509-0.58815 0.61302-1.0653 1.0438-1.4298 0.43906-0.36449 0.93114-0.54675 1.4779-0.54675 0.70415 0 1.231 0.22368 1.579 0.671 0.35621 0.43908 0.53349 1.1847 0.53349 2.2367v8.8358h2.187v-8.9352c-0.0332-3.1728-1.2376-4.7584-3.6152-4.7584-1.3006 0-2.3692 0.54175-3.2059 1.627v-7.0199h-2.2003zm69.997 0v19.087h1.9998l0.11266-1.5905c0.71244 1.2261 1.7811 1.8391 3.206 1.8391 1.4331 0 2.5266-0.53019 3.2805-1.5906 0.75385-1.0604 1.13-2.6393 1.13-4.7352v-1.3288c-8e-3 -2.1042-0.38107-3.6781-1.1184-4.7219-0.73728-1.0438-1.8424-1.5657-3.317-1.5657-1.3503 0-2.3858 0.57494-3.1065 1.7264v-7.1193h-2.187zm-19.075 0.99409-6.3489 19.645h1.8639l6.3373-19.645h-1.8523zm6.6604 0-6.3489 19.645h1.8639l6.3373-19.645h-1.8523zm80.472 0-6.3489 19.645h1.8639l6.3373-19.645h-1.8523zm-125.08 1.3917v3.2556h-2.0495v1.7761h2.0495v8.3504c0 1.1349 0.22864 2.013 0.68426 2.6343 0.45563 0.62134 1.1184 0.93279 1.9882 0.93279 0.52191 0 1.0306-0.0828 1.5276-0.24853l0.0249-1.8639c-0.29822 0.0994-0.59148 0.14911-0.88142 0.14911-0.42249 0-0.72072-0.13752-0.89469-0.41089-0.17396-0.27337-0.26177-0.67432-0.26177-1.2045v-8.3388h2.0263v-1.7761h-2.0263v-3.2556h-2.187zm7.5054 0v3.2556h-2.0495v1.7761h2.0495v8.3504c0 1.1349 0.22864 2.013 0.68427 2.6343 0.45562 0.62134 1.1184 0.93279 1.9882 0.93279 0.52189 0 1.0305-0.0828 1.5276-0.24853l0.0249-1.8639c-0.29822 0.0994-0.59149 0.14911-0.88142 0.14911-0.4225 0-0.72072-0.13752-0.89469-0.41089s-0.26178-0.67432-0.26178-1.2045v-8.3388h2.0263v-1.7761h-2.0263v-3.2556h-2.187zm12.091 3.0071c-1.3752 0-2.4322 0.57988-3.1695 1.7397l-0.11101-1.4911h-1.9882v18.614h2.187v-6.45c0.729 1.019 1.7678 1.5292 3.1181 1.5292 1.4 0 2.4819-0.52191 3.244-1.5657 0.77042-1.0438 1.1548-2.631 1.1548-4.76v-1.4663c-0.0249-2.0462-0.40095-3.582-1.13-4.6093-0.729-1.0272-1.8308-1.5408-3.3054-1.5408zm61.36 0c-1.6651 0-2.9326 0.53018-3.8024 1.5906-0.86984 1.0521-1.3056 2.593-1.3056 4.6225v1.4779c0 2.071 0.43574 3.6334 1.3056 4.6855 0.87811 1.0438 2.1489 1.5657 3.814 1.5657 1.2509 0 2.3079-0.42246 3.1695-1.2675 0.86982-0.85327 1.3288-1.9269 1.3785-3.2192h-2.0743c-0.0414 0.8367-0.28166 1.4829-0.72071 1.9385-0.43906 0.44733-1.0239 0.671-1.7529 0.671-1.0107 0-1.7512-0.3264-2.2234-0.98082-0.46391-0.65444-0.69587-1.7728-0.69587-3.3551v-1.7148c0.0165-1.4663 0.26012-2.5184 0.73232-3.1562 0.47219-0.64617 1.1979-0.96924 2.1754-0.96924 0.75385 0 1.342 0.24853 1.7645 0.74557 0.43076 0.49704 0.67099 1.2426 0.72071 2.2367h2.0743c-0.0497-1.5077-0.48048-2.6973-1.2923-3.5671-0.80356-0.86984-1.8921-1.3039-3.2672-1.3039zm11.841 0c-1.5574 0-2.8116 0.5716-3.7643 1.7148-0.94439 1.1349-1.4166 2.679-1.4166 4.6341v1.4663c0.0332 1.8805 0.51693 3.3716 1.453 4.4734 0.94438 1.1018 2.1953 1.6535 3.7527 1.6535 1.574 0 2.8332-0.56826 3.7775-1.7032 0.94439-1.1349 1.4166-2.6758 1.4166-4.6225v-1.4166c-0.0249-1.9136-0.51362-3.4246-1.4663-4.5347-0.94439-1.1101-2.1953-1.6651-3.7527-1.6651zm13.42 0c-1.342 0-2.4223 0.49705-3.2424 1.4911l-0.0497-1.2426h-2.0627v13.445h2.187v-10.078c0.45562-1.1101 1.2376-1.6651 2.3477-1.6651 1.4912 0 2.25 0.93279 2.2748 2.7967v8.9468h2.2118v-9.0098c0.0663-0.7953 0.30651-1.4497 0.72072-1.9633 0.4142-0.51362 0.95266-0.77042 1.6154-0.77042 0.8284 0 1.4166 0.24024 1.7645 0.72071 0.34793 0.47221 0.5219 1.1979 0.5219 2.1754v8.8474h2.187v-9.0595c-0.058-3.09-1.3254-4.6341-3.8024-4.6341-1.5077 0-2.684 0.64948-3.529 1.9501-0.59645-1.3006-1.6452-1.9501-3.1446-1.9501zm-77.824 0.12426c-0.47219 0-0.82841 0.13258-1.0686 0.39764-0.23195 0.26512-0.34793 0.59646-0.34793 0.99409 0 0.38105 0.11598 0.69918 0.34793 0.95598 0.24024 0.25686 0.59646 0.38604 1.0686 0.38604s0.82841-0.12918 1.0686-0.38604c0.24853-0.2568 0.37279-0.57493 0.37279-0.95598 0-0.39763-0.12426-0.72897-0.37279-0.99409-0.24023-0.26506-0.59645-0.39764-1.0686-0.39764zm64.404 1.7645c0.91953 0 1.6535 0.40096 2.2002 1.2045 0.54676 0.79524 0.82013 1.8804 0.82013 3.2556v1.516c-0.058 2.8-1.0571 4.2-2.9955 4.2-0.91954 1e-5 -1.6518-0.39266-2.1986-1.1796-0.53846-0.79524-0.80852-1.8854-0.80852-3.2689v-1.2791c0-1.3669 0.27006-2.4488 0.80852-3.244 0.54676-0.80355 1.2708-1.2045 2.1738-1.2045zm-73.886 0.0613c1.0272 0 1.7728 0.3612 2.2367 1.0819 0.46392 0.71245 0.69587 1.8225 0.69587 3.3302v1.342c-8e-3 1.4746-0.24852 2.5714-0.72071 3.2921-0.46392 0.71239-1.1929 1.0686-2.187 1.0686-1.0769 0-1.8838-0.51362-2.4223-1.5408v-6.9951c0.54674-1.0521 1.3453-1.5789 2.3974-1.5789zm42.834 0c0.99408 0 1.7098 0.33963 2.1489 1.0189 0.44733 0.671 0.671 1.8026 0.671 3.3932v1.3536c-8e-3 1.4663-0.22698 2.5482-0.65775 3.2441-0.43077 0.69587-1.1432 1.0438-2.1373 1.0438-1.1598 0-2.013-0.60472-2.5598-1.8142v-6.4003c0.55503-1.2261 1.4-1.8391 2.5349-1.8391zm-33.365 9.1456c-0.47219 0-0.8284 0.13257-1.0686 0.39763-0.23196 0.26512-0.34793 0.59647-0.34793 0.99409 0 0.38105 0.11597 0.70083 0.34793 0.95764 0.24024 0.25681 0.59645 0.38438 1.0686 0.38438 0.4722 0 0.82842-0.12757 1.0686-0.38438 0.24853-0.25681 0.37279-0.57659 0.37279-0.95764 0-0.39762-0.12426-0.72897-0.37279-0.99409-0.24023-0.26506-0.59645-0.39763-1.0686-0.39763zm42.771 0c-0.47219 0-0.82841 0.13257-1.0686 0.39763-0.23196 0.26512-0.34794 0.59647-0.34794 0.99409 0 0.38105 0.11598 0.70083 0.34794 0.95764 0.24023 0.25681 0.59645 0.38438 1.0686 0.38438s0.82841-0.12757 1.0686-0.38438c0.24853-0.25681 0.37278-0.57659 0.37278-0.95764 0-0.39762-0.12425-0.72897-0.37278-0.99409-0.24024-0.26506-0.59646-0.39763-1.0686-0.39763z" fill="#fff"/>
  <g fill="#fff">
   <path d="m354.33 502.35c-2.4785 0.0189-3.5448 3.3369-4.9901 7.7896l-38.387 0.44692c-0.1515 1.5623-0.0568 3.0417 1.5623 4.0166l29.46 1.7858c-4.3398 1.1362-9.1194 1.5661-9.1499 9.5968l-4.4635 66.06-108.69 0.22535-128.1 7.5878c-16.8 0.92603-4.9934 54.141-0.22535 54.901l131.01 16.517h105.79l16.515 140.16-65.167 13.836c-13.426 3.1174-4.5786 35.961 0.89194 37.048l62.49 8.9272 7.5878-18.747c0.99042 16.108 0.98663 40.028 3.8751 41.225 2.8881-1.1968 2.8843-25.118 3.8749-41.225l7.5878 18.747 62.49-8.9272c5.471-1.087 14.32-33.931 0.89384-37.048l-65.169-13.836 16.515-140.16h105.79l131.01-16.517c4.769-0.75938 16.577-53.975-0.22346-54.901l-128.1-7.5878-108.69-0.22535-4.4635-66.06c-0.0189-8.0303-4.81-8.4615-9.1499-9.5968l29.459-1.7858c1.6134-0.97527 1.7119-2.4537 1.5623-4.0166l-38.386-0.44692c-1.4449-4.4527-2.5134-7.7663-4.9918-7.7896zm0 68.806c16.636 0 23.395 8.4471 23.873 13.232l1.693 20.381h-51.131l1.693-20.381c0.47722-4.7849 7.2355-13.232 23.871-13.232z" fill-rule="evenodd"/>
   <path d="m245.4 617.95c-0.4142 0-0.72403 0.12758-0.93114 0.38439-0.19881 0.2568-0.29822 0.57159-0.29822 0.94439 0 0.37279 0.0994 0.68429 0.29822 0.93278 0.20711 0.24855 0.51694 0.37279 0.93114 0.37279 0.42248 0 0.73728-0.12424 0.94438-0.37279 0.20711-0.24849 0.31149-0.55999 0.31149-0.93278 0-0.36454-0.1077-0.67433-0.32308-0.93114-0.2071-0.26506-0.51859-0.39764-0.93279-0.39764zm66.12 0c-1.5491 0-2.805 0.46393-3.766 1.3917-0.95267 0.9278-1.4282 2.1075-1.4282 3.5406 0 0.82844 0.16569 1.5657 0.49705 2.2118 0.33965 0.63791 0.84498 1.2095 1.516 1.7148 0.67929 0.49705 1.6568 0.97419 2.9326 1.4298 1.2758 0.45564 2.1572 0.92285 2.6459 1.4033 0.48877 0.48047 0.73398 1.173 0.73398 2.076 0 0.88635-0.2535 1.5856-0.75882 2.0992-0.50533 0.51366-1.2592 0.77042-2.2616 0.77042-1.0769 0-1.9302-0.30979-2.5598-0.93113-0.6213-0.62129-0.93113-1.4911-0.93113-2.6095h-2.2864c0 1.0769 0.25184 2.0329 0.75717 2.8696 0.51361 0.82844 1.2144 1.4746 2.1008 1.9385 0.89468 0.45564 1.8672 0.68427 2.9193 0.68427 1.6402 0 2.9375-0.43903 3.8902-1.3172 0.95266-0.8864 1.4282-2.0628 1.4282-3.529 0-1.3918-0.38439-2.5184-1.1548-3.3799-0.76214-0.86152-2.0346-1.5872-3.8156-2.1754-1.1432-0.40594-1.9882-0.86486-2.5349-1.3785s-0.82013-1.1515-0.82013-1.9136c0-0.92781 0.2535-1.6485 0.75882-2.1622 0.50534-0.51367 1.2178-0.77042 2.1373-0.77042 1.0107 0 1.7844 0.3065 2.3229 0.91953s0.80853 1.4778 0.80853 2.5962h2.2864c0-1.0107-0.22367-1.9385-0.67101-2.7835-0.44734-0.84496-1.0852-1.5027-1.9136-1.9749-0.8284-0.48047-1.7728-0.72072-2.8332-0.72072zm20.44 0c-1.9136 0-3.4048 0.68761-4.4734 2.0627-1.0686 1.3669-1.6022 3.2589-1.6022 5.6779v3.4048c0.0414 2.3693 0.59977 4.205 1.6767 5.5056 1.0852 1.2923 2.5598 1.9385 4.4237 1.9385 1.9385 0 3.4346-0.6677 4.4867-2.0014 1.0521-1.3338 1.5773-3.2341 1.5773-5.7028v-3.2938c-0.0249-2.4356-0.57161-4.3078-1.6403-5.6166-1.0604-1.3172-2.5432-1.9749-4.4486-1.9749zm-81.626 0.24853v18.092h2.2732v-8.3636h7.2817v8.3636h2.2864v-18.092h-2.2864v7.7788h-7.2817v-7.7788h-2.2732zm15.806 0v18.092h4.0509c2.2533 0 3.9714-0.65113 5.156-1.9517 1.1846-1.3089 1.7778-3.1596 1.7778-5.5537v-3.032c0-2.3941-0.58487-4.2497-1.7529-5.5669-1.168-1.3254-2.8083-1.9882-4.9208-1.9882h-4.311zm18.551 0 5.6166 18.092h1.9882l5.6299-18.092h-2.4985l-4.1371 14.6-4.1139-14.6h-2.4852zm15.794 0v18.092h2.2732v-18.092h-2.2732zm19.534 0v18.092h2.2732v-18.092h-2.2732zm21.572 0v18.092h2.2864v-13.942l7.2436 13.942h2.2864v-18.092h-2.2616v14.003l-7.2685-14.003h-2.2864zm-9.6311 1.801c1.2923 0 2.25 0.46887 2.8713 1.405 0.6296 0.9278 0.94439 2.3477 0.94439 4.2613v3.3932c-0.0249 1.8474-0.34462 3.2176-0.95764 4.1122-0.61302 0.89473-1.5574 1.342-2.8332 1.342s-2.2367-0.48377-2.8829-1.453c-0.63788-0.96925-0.95599-2.3775-0.95599-4.2249v-3.244c8e-3 -1.8391 0.33136-3.2308 0.96924-4.1752 0.64616-0.94438 1.5939-1.4166 2.8448-1.4166zm-63.547 0.16237h2.0379c1.4828-1e-5 2.5896 0.44736 3.3186 1.342 0.73728 0.88641 1.1051 2.2814 1.1051 4.1868v3.2059c-0.0165 1.7976-0.39266 3.1562-1.13 4.0758-0.73728 0.91123-1.9053 1.3669-3.5042 1.3669h-1.8275v-14.177zm-24.057 2.684v15.047c0 0.68763-0.0944 1.1681-0.28497 1.4414-0.18225 0.28163-0.4606 0.42248-0.83338 0.42248-0.34793 0-0.63291-0.0331-0.85658-0.0994l0.0116 1.8391c0.35622 0.14913 0.75882 0.22367 1.2062 0.22367 1.9468 0 2.9326-1.2459 2.9574-3.7394v-15.135h-2.2002zm36.309 10.847c-0.47219 0-0.82841 0.13257-1.0686 0.39764-0.23196 0.26511-0.34794 0.59647-0.34794 0.99408 0 0.38106 0.11598 0.70084 0.34794 0.95765 0.24023 0.2568 0.59645 0.38438 1.0686 0.38438s0.82841-0.12758 1.0686-0.38438c0.24852-0.25681 0.37278-0.57659 0.37278-0.95765 0-0.39761-0.12426-0.72897-0.37278-0.99408-0.24024-0.26507-0.59646-0.39764-1.0686-0.39764z"/>
  </g>
 </g>
</svg>
